# xmcd CD database file
#
# Track frame offsets:
#	150
#	35146
#	44783
#	88696
#	113884
#	146288
#	180243
#	204102
#	229938
#
# Disc length: 3508 seconds
#
# Revision: 0
# Processed by: cddbd v1.5.2PL0 Copyright (c) Steve Scherf et al.
# Submitted via: CDex 1.77
#
DISCID=760db209
DTITLE=Jin Jim -  Die Ankunft
DYEAR=2014
DGENRE=Jazz
TTITLE0=Quiero todo
TTITLE1=Intro Ankunft des Kaisers
TTITLE2=Die  Ankunft des Kaisers
TTITLE3=Ring Chike Tar
TTITLE4=City lights
TTITLE5=Landscapes
TTITLE6=Feel like Balkan
TTITLE7=Song for Gabriela
TTITLE8=Wolken ziehen auf
EXTD=YEAR: 2014
EXTT0=
EXTT1=
EXTT2=
EXTT3=
EXTT4=
EXTT5=
EXTT6=
EXTT7=
EXTT8=
PLAYORDER=
